<svg width="500" height="500" viewBox="0 0 500 500" fill="none" xmlns="http://www.w3.org/2000/svg">
<rect width="500" height="500" rx="40" fill="#D9D9D9"/>
<path d="M84.9687 45.6157C94.6764 46.004 107.102 46.3923 122.246 46.7806C137.39 47.1689 152.534 47.3631 167.679 47.3631C186.706 47.3631 204.762 47.1689 221.848 46.7806C238.933 46.3923 250.971 46.1982 257.96 46.1982C303.781 46.1982 337.952 54.741 360.474 71.8265C383.384 88.9122 394.839 110.852 394.839 137.645C394.839 151.236 391.15 164.827 383.773 178.417C376.783 192.008 365.328 204.24 349.407 215.113C333.875 225.985 313.489 234.14 288.249 239.576V240.741C322.42 243.848 349.407 250.837 369.211 261.71C389.403 272.194 403.771 284.814 412.313 299.57C420.856 313.937 425.127 329.081 425.127 345.002C425.127 368.689 418.915 389.075 406.489 406.161C394.451 422.858 376.977 435.672 354.067 444.603C331.157 453.534 303.587 458 271.357 458C262.814 458 249.806 457.806 232.332 457.418C214.858 456.641 193.695 456.253 168.843 456.253C152.923 456.253 137.39 456.447 122.246 456.835C107.102 456.835 94.6764 457.223 84.9687 458V446.351C97.7829 445.574 107.296 444.021 113.509 441.691C120.111 439.361 124.382 434.701 126.324 427.712C128.653 420.722 129.818 410.238 129.818 396.259V107.357C129.818 92.9894 128.653 82.5051 126.324 75.9038C124.382 68.9142 120.111 64.2545 113.509 61.9247C107.296 59.2065 97.7829 57.6533 84.9687 57.265V45.6157ZM248.059 57.265C232.138 57.265 221.654 60.5656 216.605 67.1669C211.946 73.7681 209.616 87.1648 209.616 107.357V396.259C209.616 409.85 210.781 420.14 213.111 427.129C215.441 434.119 219.518 438.779 225.342 441.109C231.167 443.438 239.71 444.603 250.971 444.603C282.812 444.603 305.722 435.866 319.702 418.392C334.069 400.53 341.253 375.29 341.253 342.672C341.253 312.772 333.487 289.668 317.954 273.359C302.81 257.05 277.57 248.896 242.234 248.896H189.23C189.23 248.896 189.23 247.342 189.23 244.236C189.23 240.741 189.23 238.994 189.23 238.994H239.322C259.125 238.994 274.464 234.722 285.336 226.179C296.209 217.248 303.587 205.599 307.47 191.232C311.353 176.476 313.294 160.749 313.294 144.052C313.294 115.317 308.246 93.766 298.15 79.3986C288.054 64.6428 271.357 57.265 248.059 57.265Z" fill="#131313"/>
</svg>
